<svg id="_x33_0" enable-background="new 0 0 64 64" height="512" viewBox="0 0 64 64" width="512" xmlns="http://www.w3.org/2000/svg" xmlns:xlink="http://www.w3.org/1999/xlink"><linearGradient id="SVGID_1_" gradientUnits="userSpaceOnUse" x1="32" x2="32" y1="55" y2="8"><stop offset="0" stop-color="#9f2fff"/><stop offset="1" stop-color="#0bb1d3"/></linearGradient><path d="m29.414 36-6.414-6.414-6.414 6.414 6.414 6.414zm-6.414-3.586 3.586 3.586-3.586 3.586-3.586-3.586zm-8 4.586h-2v-2h2zm32.414-1-6.414-6.414-6.414 6.414 6.414 6.414zm-6.414-3.586 3.586 3.586-3.586 3.586-3.586-3.586zm10 4.586h-2v-2h2zm9 10.184v-5.908l3.166-5.276-3.166-5.277v-13.139c2.035-.885 3.273-3.042 2.948-5.317-.349-2.433-2.551-4.267-5.12-4.267h-1.828c-1.103 0-2 .897-2 2v13c0 2.757-2.243 5-5 5s-5-2.243-5-5v-5.999c1.606-1.201 2.343-3.244 1.845-5.262-.438-1.772-1.872-3.186-3.655-3.602-1.529-.356-3.093-.012-4.296.944-1.204.956-1.894 2.384-1.894 3.919 0 1.579.754 3.062 2 4v5c0 3.309-2.691 6-6 6s-6-2.691-6-6v-5c1.246-.938 2-2.421 2-4 0-1.535-.69-2.963-1.894-3.918s-2.768-1.3-4.297-.943c-1.782.416-3.217 1.829-3.654 3.601-.498 2.018.238 4.061 1.845 5.262v5.998c0 2.757-2.243 5-5 5s-5-2.243-5-5v-13c0-1.103-.897-2-2-2h-1.828c-2.569 0-4.771 1.834-5.12 4.268-.325 2.274.913 4.432 2.948 5.316v13.139l-3.166 5.277 3.166 5.277v5.908c-1.161.413-2 1.513-2 2.815v2c0 1.654 1.346 3 3 3h54c1.654 0 3-1.346 3-3v-2c0-1.302-.839-2.402-2-2.816zm-1.198-7.797-3.388-3.387 3.388-3.387 2.032 3.387zm-55.77-26.836c.208-1.454 1.559-2.551 3.14-2.551h1.828v13c0 3.86 3.141 7 7 7s7-3.14 7-7v-7.112l-.499-.289c-.976-.564-1.787-1.828-1.404-3.38.256-1.033 1.126-1.89 2.167-2.133.942-.221 1.866-.021 2.6.562.722.574 1.136 1.431 1.136 2.352 0 1.068-.575 2.064-1.501 2.599l-.499.289v6.112c0 4.411 3.589 8 8 8s8-3.589 8-8v-6.112l-.499-.289c-.926-.535-1.501-1.531-1.501-2.599 0-.921.414-1.778 1.137-2.351.733-.583 1.657-.783 2.599-.563 1.042.243 1.912 1.1 2.168 2.133.383 1.552-.429 2.816-1.404 3.38l-.5.289v7.112c0 3.86 3.141 7 7 7s7-3.14 7-7v-13h1.828c1.581 0 2.932 1.097 3.14 2.551.22 1.531-.734 2.973-2.217 3.355l-.751.193v14.487l-5.414 5.414 5.414 5.414v5.586h-52v-5.586l5.414-5.414-5.414-5.414v-14.487l-.751-.193c-1.482-.382-2.437-1.824-2.217-3.355zm2.166 20.062 3.388 3.387-3.388 3.387-2.032-3.387zm54.802 19.387c0 .551-.448 1-1 1h-54c-.552 0-1-.449-1-1v-2c0-.551.448-1 1-1h54c.552 0 1 .449 1 1zm-27-15h-2v-2h2z" fill="url(#SVGID_1_)"/></svg>